<?xml version="1.0" standalone="no"?>
<!DOCTYPE svg PUBLIC "-//W3C//DTD SVG 20010904//EN"
 "http://www.w3.org/TR/2001/REC-SVG-20010904/DTD/svg10.dtd">
<svg version="1.0" xmlns="http://www.w3.org/2000/svg"
 width="356.000000pt" height="356.000000pt" viewBox="0 0 356.000000 356.000000"
 preserveAspectRatio="xMidYMid meet">
<metadata>
Created by potrace 1.14, written by Peter Selinger 2001-2017
</metadata>
<g transform="translate(0.000000,356.000000) scale(0.100000,-0.100000)"
fill="#000000" stroke="none">
<path d="M1575 3540 c-27 -4 -68 -10 -90 -13 -73 -11 -270 -65 -351 -97 -204
-81 -398 -203 -558 -352 -80 -74 -205 -215 -246 -278 -8 -12 -23 -33 -32 -45
-10 -13 -18 -28 -18 -34 0 -6 -4 -11 -8 -11 -15 0 -140 -262 -176 -370 -98
-294 -117 -614 -55 -923 21 -105 60 -238 90 -302 10 -22 31 -71 48 -108 92
-208 291 -458 490 -616 120 -95 197 -144 336 -211 272 -131 499 -180 810 -175
276 4 520 63 756 183 105 53 246 139 277 169 8 7 30 26 50 41 224 166 450 488
557 792 91 261 125 614 80 850 -1 8 -5 32 -9 52 -25 154 -95 359 -174 508
-271 509 -762 854 -1329 934 -102 14 -362 18 -448 6z"/>
</g>
</svg>
